<svg xmlns="http://www.w3.org/2000/svg" style="display:none" width="100%" height="100%">
  <symbol viewBox="0 0 32 32" id="logo"><path d="M14.222 1.778S14.222 0 16 0s1.778 1.778 1.778 1.778v1.778s0 1.777-1.778 1.777-1.778-1.777-1.778-1.777V1.778Zm16 12.444S32 14.222 32 16s-1.778 1.778-1.778 1.778h-1.778s-1.777 0-1.777-1.778 1.777-1.778 1.777-1.778h1.778Zm-26.666 0s1.777 0 1.777 1.778-1.777 1.778-1.777 1.778H1.778S0 17.778 0 16s1.778-1.778 1.778-1.778h1.778Zm4.552-7.74s1.256 1.258 0 2.514c-1.257 1.257-2.514 0-2.514 0L4.336 7.74s-1.257-1.256 0-2.514c1.258-1.257 2.515 0 2.515 0l1.257 1.257ZM26.774 25.15s1.257 1.257 0 2.514-2.514 0-2.514 0l-1.256-1.257s-1.257-1.257 0-2.514c1.256-1.256 2.513 0 2.513 0l1.257 1.257Zm-.367-16.153s-1.257 1.257-2.514 0c-1.257-1.256 0-2.513 0-2.513l1.257-1.257s1.257-1.257 2.514 0 0 2.514 0 2.514l-1.257 1.256ZM7.74 27.663s-1.256 1.257-2.513 0 0-2.514 0-2.514l1.257-1.257s1.256-1.256 2.513 0c1.257 1.257 0 2.514 0 2.514L7.74 27.663Zm6.482.781s0-1.777 1.778-1.777 1.778 1.777 1.778 1.777v1.778S17.778 32 16 32s-1.778-1.778-1.778-1.778v-1.778ZM16 24.89A8.889 8.889 0 1 0 16 7.11a8.889 8.889 0 0 0 0 17.778Z" fill="#F9D371"/></symbol>
</svg>
